<svg xmlns="http://www.w3.org/2000/svg" viewBox="0 0 96 96" role="img" aria-label="Peru">
  <defs>
    <clipPath id="circle">
      <circle cx="48" cy="48" r="44"/>
    </clipPath>
    <radialGradient id="shine" cx="32%" cy="18%" r="72%">
      <stop offset="0" stop-color="#ffffff" stop-opacity=".75"/>
      <stop offset=".34" stop-color="#ffffff" stop-opacity=".12"/>
      <stop offset="1" stop-color="#000000" stop-opacity=".18"/>
    </radialGradient>
  </defs>
  <circle cx="48" cy="48" r="44" fill="#fff"/>
  <g clip-path="url(#circle)">
    <rect width="32" height="96" fill="#c8102e"/>
    <rect x="32" width="32" height="96" fill="#ffffff"/>
    <rect x="64" width="32" height="96" fill="#c8102e"/>
    <path d="M48 32c6 4 11 5 16 3-2 14-6 23-16 29-10-6-14-15-16-29 5 2 10 1 16-3Z" fill="#f5c542" stroke="#0e7a3c" stroke-width="2"/>
    <path d="M43 49c3-9 10-9 13-2-2 5-6 7-12 7Z" fill="#1f8d4d"/>
    <path d="M35 54c4 8 11 12 13 12s9-4 13-12" fill="none" stroke="#0e7a3c" stroke-width="2" stroke-linecap="round"/>
    <rect width="96" height="96" fill="url(#shine)"/>
  </g>
  <circle cx="48" cy="48" r="44" fill="none" stroke="#ffffff" stroke-opacity=".55" stroke-width="2"/>
</svg>
