<svg xmlns="http://www.w3.org/2000/svg" viewBox="0 0 360 220" role="img" aria-label="RODAR Consulting">
  <defs>
    <linearGradient id="blue" x1="60" y1="40" x2="250" y2="160" gradientUnits="userSpaceOnUse">
      <stop offset="0" stop-color="#06152a"/>
      <stop offset=".52" stop-color="#1455c8"/>
      <stop offset="1" stop-color="#06152a"/>
    </linearGradient>
  </defs>
  <rect width="360" height="220" fill="none"/>
  <path d="M120 32h130c33 0 56 21 56 52 0 24-13 42-34 49l42 55h-54l-36-49h-45l-35 49H92l58-84h89c12 0 20-7 20-18s-8-18-20-18H96Z" fill="url(#blue)"/>
  <path d="M92 188l57-84h53l-58 84Z" fill="#1b5fd0"/>
  <text x="32" y="178" font-family="Montserrat, Arial, sans-serif" font-size="42" font-weight="800" letter-spacing="10" fill="#06152a">RODAR</text>
  <path d="M48 202h62M250 202h62" stroke="#1455c8" stroke-width="3" stroke-linecap="round"/>
  <text x="124" y="208" font-family="Montserrat, Arial, sans-serif" font-size="18" font-weight="700" letter-spacing="8" fill="#1455c8">CONSULTING</text>
</svg>
